<?xml version="1.0" encoding="UTF-8"?>
<svg id="Layer_6" data-name="Layer 6" xmlns="http://www.w3.org/2000/svg" xmlns:xlink="http://www.w3.org/1999/xlink" viewBox="0 0 118.26 31.66">
  <defs>
    <style>
      .cls-1 {
        fill: url(#linear-gradient);
      }

      .cls-1, .cls-2, .cls-3, .cls-4 {
        stroke-width: 0px;
      }

      .cls-2 {
        fill: url(#linear-gradient-4);
      }

      .cls-3 {
        fill: url(#linear-gradient-2);
      }

      .cls-4 {
        fill: url(#linear-gradient-3);
      }
    </style>
    <linearGradient id="linear-gradient" x1="77.11" y1="8.72" x2="117.53" y2="8.72" gradientUnits="userSpaceOnUse">
      <stop offset=".02" stop-color="#ea4e43" stop-opacity=".41"/>
      <stop offset=".17" stop-color="rgba(234, 78, 67, .62)" stop-opacity=".62"/>
      <stop offset=".38" stop-color="rgba(234, 78, 67, .89)" stop-opacity=".89"/>
      <stop offset=".48" stop-color="#ea4e43"/>
      <stop offset=".81" stop-color="rgba(234, 78, 67, .36)" stop-opacity=".36"/>
      <stop offset="1" stop-color="#ea4e43" stop-opacity="0"/>
    </linearGradient>
    <linearGradient id="linear-gradient-2" x1="76.21" y1="21.68" x2="118.26" y2="21.68" gradientUnits="userSpaceOnUse">
      <stop offset=".14" stop-color="#ea4e43"/>
      <stop offset=".28" stop-color="rgba(234, 78, 67, .83)" stop-opacity=".83"/>
      <stop offset=".63" stop-color="rgba(234, 78, 67, .39)" stop-opacity=".39"/>
      <stop offset=".88" stop-color="rgba(234, 78, 67, .11)" stop-opacity=".11"/>
      <stop offset="1" stop-color="#ea4e43" stop-opacity="0"/>
    </linearGradient>
    <linearGradient id="linear-gradient-3" x1="36.44" y1="15.97" x2="75" y2="15.97" xlink:href="#linear-gradient"/>
    <linearGradient id="linear-gradient-4" x1="19.5" y1=".79" x2="19.5" y2="31.46" xlink:href="#linear-gradient"/>
  </defs>
  <g>
    <path class="cls-1" d="M77.28,17.43c-.4-.13-.07-2.81.87-5.23.8-2.05,1.86-3.4,2.62-4.36.98-1.24,2.86-3.56,6.1-5.23,1.74-.9,3.15-1.24,5.23-1.74C93.77.47,95.66,0,98.2,0c1.29,0,3.47,0,6.1.87,2.95.97,4.86,2.48,6.1,3.49,1.15.93,3.48,2.85,5.23,6.1,1.44,2.68,2.25,5.84,1.74,6.1-.44.22-1.87-1.65-2.62-2.62-.86-1.13-1.39-2.02-1.74-2.62-1.68-2.8-2.51-4.19-3.49-5.23-2-2.13-4.36-2.91-6.1-3.49-.76-.25-3.43-1.08-6.97-.87-.64.04-3.56.24-6.97,1.74-1.24.54-2.75,1.21-4.36,2.62-1.49,1.3-2.35,2.62-3.49,4.36-.42.65-1.15,1.88-2.62,4.36-1.29,2.19-1.56,2.67-1.74,2.62Z"/>
    <path class="cls-3" d="M77.72,15.38c-.85,1.14-1.01,2.65-1.31,5.67-.21,2.06-.31,3.1,0,4.36.18.73.72,2.8,2.62,4.36,1.82,1.49,3.82,1.64,5.23,1.74.85.06,2.96.19,5.23-.87.8-.37,1.4-.84,2.62-1.74,1.95-1.45,2.26-2.04,3.4-2.39,1.26-.39,2.38-.14,3,0,2.08.48,2.83,1.67,4.49,2.83.55.38,3.7,2.61,7.41,2.18.44-.05,4.35-.57,6.54-3.92,1.38-2.12,1.35-4.26,1.31-6.54-.04-2.22-.07-4.09-1.31-5.67-.75-.95-1.93-1.82-6.1-2.62-2.79-.54-5.13-.72-9.59-.87-1.69-.06-5.82-.18-11.33,0-2.05.07-4.24.17-6.97.87-2.49.64-4.12,1.12-5.23,2.62Z"/>
  </g>
  <path class="cls-4" d="M47,20c2.33.01,4.67-.03,7,0,2.24.03,3.58.05,5.31.03,4.94-.03,7.18-.33,8.19-.53,2.26-.44,3.39-.66,4.5-1.5,1.3-.98,2.02-2.29,2.44-3.45s.52-2.17.56-2.55c0-3.31-1.47-6.27-2-7-.51-.7-1.71-2.3-3.86-3.41-1.63-.83-2.93-.94-6.64-1.09-7.9-.33-10.52-.23-13,0-1.29.12-2.97.31-5,1-1.4.47-2.73.92-4,2-1.73,1.48-2.36,3.27-3,5-1.24,3.33-1.1,6.18-1,8,.11,1.88.31,4.8,2,8,.58,1.1,1.39,2.6,3,4,2.43,2.12,5.11,2.65,7,3,1.79.33,1.57.05,9,0,4.76-.03,7.14-.05,8,0,1.33.08,2.67-.05,4,0,2.07.09,2.93.11,3.5-.5.33-.35.38-1.07.5-2.5.1-1.17.15-1.75,0-2-.57-.95-2.43-.52-5.84-.4-.82.03-2.43-.01-5.66-.1-4.64-.14-4.16-.37-8.5-.5-1.92-.06-3.39-.02-5.5-.5-1.54-.35-2.57-.78-3.5-1.5-.87-.67-2.38-2.17-2-3,.25-.56,1.22-.52,4.5-.5ZM42.5,12.5c.44-2.13,1.61-3.55,2-4,.5-.57,1.66-1.75,3.5-2.5,1.09-.44,1.74-.46,6.5-.5,6.67-.06,1.34.01,6,0,3.6-.01,4.37-.04,5.5.5.54.26,2.23,1.09,3,3,.18.44.97,2.39,0,4-.72,1.2-2.03,1.53-4,2-1.49.35-2.77.47-7.5.5-2.51.02-3.77.01-5,0-1.89-.01-4.63-.02-8,0-.23-.01-1.48-.1-2-1-.18-.31-.26-.76,0-2Z"/>
  <path class="cls-2" d="M0,.99q3.65,0,3.66,0c1.42-.13,2.17-.39,2.44,0,.12.18.04.34,0,1.21v15.76c-.09,3.78-.46,5.94,0,6.06.16.04.31-.25,1.22-1.21l1.22-1.21c.81-.81,1.62-1.62,2.44-2.42,1.22-1.21,2.44-2.42,3.66-3.64.81-.81,1.62-1.62,2.44-2.42,2.44-2.42,3.66-3.64,3.66-3.64,2.02-2.03,4.09-4.01,6.09-6.06,1.2-1.23,2.17-2.24,3.66-2.42.07,0,.03,0,2.44,0,1.59,0,2.38,0,2.44,0,1.79-.06,2.32-.22,2.44,0,.11.22-.21.79-2.44,2.42-1.22,1.21-2.44,2.42-3.66,3.64-1.62,1.62-3.25,3.23-4.87,4.85-2.44,2.42-3.66,3.64-3.66,3.64-.57.36-1.16.67-1.22,1.21-.1.84,1.16,1.58,2.44,2.42,1.69,1.11,3.23,2.45,4.87,3.64.52.37,4.46,3.23,6.09,4.85l1.22,1.21c.81.81,1.22,1.21,1.22,1.21.98.92,1.27,1.05,1.22,1.21-.1.34-1.48.09-3.66,0-.86-.03-1.44-.03-1.88,0-.62.03-1.11.2-1.78,0-.34-.1-.59-.24-.68-.29-.51-.31-.75-.69-1-1-.11-.14-.22-.27-1.43-1.27-1.48-1.23-3.33-2.71-4.57-3.73-2.26-1.86-3.28-2.83-5.71-4.61,0,0,0,0,0,0,0,0-2.04,1.15-3.66,2.42-.4.32-.15.15-3.66,3.64,0,0-.86.86-2.44,2.42-.41.4-.81.81-1.22,1.21l-1.22,1.21H0c.17-.79,0-1.62,0-2.42V.99Z"/>
</svg>